<svg width="624" height="562" viewBox="0 0 624 562" fill="none" xmlns="http://www.w3.org/2000/svg">
<ellipse cx="261.604" cy="249.678" rx="261.604" ry="249.678" transform="matrix(0.999879 0.015576 -0.0159208 0.999873 91.4802 49.0273)" fill="#87F079"/>
<ellipse cx="281.804" cy="276.646" rx="281.804" ry="276.646" transform="matrix(0.999879 0.015576 -0.0159208 0.999873 8.80884 0)" fill="#4C7347"/>
<g clip-path="url(#clip0_229_58)">
<path d="M529.872 464.568L347.07 377.616L441.198 162.784L624 249.737L529.872 464.568Z" fill="#F2F2F2"/>
<path d="M557.719 339.763L419.333 273.937C419.072 273.813 418.869 273.587 418.769 273.307C418.669 273.027 418.68 272.717 418.798 272.446C418.917 272.174 419.135 271.963 419.404 271.859C419.672 271.754 419.969 271.765 420.23 271.889L558.617 337.715C558.877 337.839 559.08 338.065 559.18 338.345C559.28 338.625 559.27 338.935 559.151 339.206C559.032 339.478 558.814 339.689 558.546 339.793C558.277 339.898 557.98 339.887 557.719 339.763Z" fill="white"/>
<path d="M565.415 322.199L427.028 256.374C426.899 256.312 426.783 256.225 426.686 256.117C426.589 256.009 426.514 255.882 426.464 255.743C426.415 255.605 426.392 255.458 426.397 255.31C426.402 255.162 426.435 255.017 426.494 254.882C426.553 254.748 426.636 254.627 426.74 254.526C426.844 254.425 426.966 254.347 427.099 254.295C427.232 254.243 427.373 254.22 427.515 254.225C427.657 254.23 427.796 254.264 427.925 254.326L566.312 320.151C566.441 320.213 566.557 320.3 566.654 320.408C566.75 320.516 566.826 320.643 566.875 320.782C566.925 320.92 566.948 321.067 566.943 321.215C566.938 321.363 566.905 321.508 566.846 321.643C566.787 321.777 566.703 321.898 566.6 321.999C566.496 322.1 566.374 322.178 566.241 322.23C566.108 322.281 565.967 322.305 565.825 322.3C565.683 322.295 565.544 322.261 565.415 322.199Z" fill="white"/>
<path d="M573.11 304.636L434.723 238.811C434.594 238.749 434.478 238.662 434.381 238.554C434.284 238.446 434.209 238.319 434.159 238.18C434.11 238.042 434.087 237.895 434.092 237.747C434.097 237.599 434.13 237.454 434.189 237.319C434.248 237.185 434.332 237.064 434.435 236.963C434.539 236.862 434.661 236.784 434.794 236.732C434.927 236.68 435.068 236.657 435.21 236.662C435.352 236.667 435.491 236.701 435.62 236.763L574.007 302.588C574.267 302.712 574.469 302.939 574.569 303.219C574.669 303.498 574.658 303.807 574.539 304.079C574.42 304.35 574.203 304.561 573.935 304.666C573.667 304.77 573.37 304.759 573.11 304.636Z" fill="white"/>
<path d="M580.805 287.073L442.418 221.248C442.289 221.186 442.173 221.099 442.076 220.991C441.98 220.883 441.904 220.756 441.855 220.617C441.805 220.479 441.782 220.332 441.787 220.184C441.792 220.036 441.825 219.891 441.884 219.756C441.943 219.622 442.027 219.501 442.131 219.4C442.235 219.299 442.356 219.221 442.489 219.169C442.622 219.118 442.764 219.094 442.905 219.099C443.047 219.104 443.187 219.138 443.316 219.2L581.702 285.025C581.831 285.087 581.947 285.174 582.044 285.282C582.141 285.39 582.216 285.517 582.266 285.656C582.315 285.794 582.338 285.941 582.333 286.089C582.328 286.237 582.295 286.382 582.236 286.517C582.177 286.651 582.094 286.772 581.99 286.873C581.886 286.974 581.764 287.052 581.631 287.104C581.498 287.156 581.357 287.179 581.215 287.174C581.073 287.169 580.934 287.135 580.805 287.073Z" fill="white"/>
<path d="M550.765 355.635L412.378 289.809C412.249 289.748 412.133 289.661 412.036 289.553C411.94 289.444 411.864 289.317 411.815 289.179C411.765 289.04 411.742 288.893 411.747 288.745C411.752 288.598 411.785 288.452 411.844 288.318C411.903 288.183 411.987 288.062 412.091 287.962C412.194 287.861 412.316 287.782 412.449 287.731C412.582 287.679 412.724 287.655 412.865 287.66C413.007 287.666 413.147 287.7 413.276 287.761L551.662 353.587C551.923 353.711 552.126 353.937 552.226 354.217C552.326 354.497 552.315 354.807 552.196 355.078C552.077 355.35 551.86 355.561 551.591 355.665C551.323 355.77 551.026 355.759 550.765 355.635Z" fill="white"/>
<path d="M573.874 261.309L465.776 209.892C465.168 209.619 464.677 209.122 464.397 208.497C464.117 207.871 464.067 207.161 464.257 206.5C464.374 206.14 464.561 205.81 464.807 205.531C465.054 205.252 465.353 205.03 465.687 204.879C466.021 204.729 466.382 204.653 466.746 204.656C467.11 204.66 467.469 204.743 467.8 204.901L575.864 256.303C576.484 256.577 576.984 257.081 577.268 257.716C577.553 258.352 577.601 259.075 577.405 259.746C577.285 260.1 577.095 260.425 576.848 260.699C576.601 260.973 576.302 261.191 575.97 261.338C575.638 261.485 575.28 261.559 574.919 261.554C574.558 261.549 574.202 261.466 573.874 261.309Z" fill="white"/>
<path d="M157.942 249.737L340.745 162.784L434.872 377.616L252.07 464.568L157.942 249.737Z" fill="#F2F2F2"/>
<path d="M224.223 339.763L362.609 273.937C362.739 273.876 362.855 273.789 362.951 273.68C363.048 273.572 363.123 273.445 363.173 273.307C363.223 273.168 363.246 273.021 363.24 272.873C363.235 272.726 363.203 272.58 363.144 272.446C363.085 272.311 363.001 272.19 362.897 272.09C362.793 271.989 362.671 271.91 362.538 271.859C362.406 271.807 362.264 271.783 362.122 271.788C361.981 271.794 361.841 271.828 361.712 271.889L223.326 337.715C223.196 337.776 223.08 337.863 222.984 337.971C222.887 338.08 222.812 338.207 222.762 338.345C222.712 338.484 222.689 338.631 222.695 338.779C222.7 338.926 222.733 339.072 222.791 339.206C222.85 339.341 222.934 339.462 223.038 339.562C223.142 339.663 223.264 339.742 223.397 339.793C223.529 339.845 223.671 339.869 223.813 339.864C223.954 339.858 224.094 339.824 224.223 339.763Z" fill="white"/>
<path d="M216.528 322.199L354.914 256.374C355.175 256.25 355.378 256.023 355.478 255.743C355.578 255.464 355.568 255.154 355.449 254.882C355.33 254.611 355.112 254.4 354.843 254.295C354.575 254.191 354.278 254.202 354.017 254.326L215.63 320.151C215.501 320.213 215.385 320.3 215.289 320.408C215.192 320.516 215.117 320.643 215.067 320.782C215.017 320.92 214.994 321.067 214.999 321.215C215.005 321.363 215.037 321.508 215.096 321.643C215.155 321.777 215.239 321.898 215.343 321.999C215.447 322.1 215.569 322.178 215.701 322.23C215.834 322.281 215.976 322.305 216.118 322.3C216.259 322.295 216.399 322.261 216.528 322.199Z" fill="white"/>
<path d="M208.833 304.636L347.219 238.811C347.48 238.687 347.683 238.46 347.783 238.18C347.883 237.901 347.872 237.591 347.753 237.319C347.634 237.048 347.417 236.837 347.148 236.732C346.88 236.628 346.583 236.639 346.322 236.763L207.935 302.588C207.675 302.712 207.473 302.939 207.373 303.219C207.273 303.498 207.283 303.808 207.402 304.079C207.521 304.351 207.739 304.562 208.007 304.666C208.275 304.771 208.572 304.76 208.833 304.636Z" fill="white"/>
<path d="M201.137 287.073L339.524 221.248C339.653 221.186 339.769 221.099 339.866 220.991C339.963 220.883 340.038 220.756 340.088 220.617C340.137 220.479 340.16 220.332 340.155 220.184C340.15 220.036 340.117 219.891 340.058 219.756C339.999 219.622 339.915 219.501 339.812 219.4C339.708 219.299 339.586 219.221 339.453 219.169C339.32 219.117 339.179 219.094 339.037 219.099C338.895 219.104 338.756 219.138 338.627 219.2L200.24 285.025C199.979 285.149 199.777 285.376 199.677 285.656C199.576 285.935 199.587 286.245 199.706 286.517C199.825 286.788 200.043 286.999 200.311 287.104C200.58 287.208 200.877 287.197 201.137 287.073Z" fill="white"/>
<path d="M231.178 355.635L369.564 289.809C369.825 289.685 370.027 289.459 370.128 289.179C370.228 288.899 370.217 288.589 370.098 288.318C369.979 288.046 369.762 287.835 369.493 287.731C369.225 287.626 368.927 287.637 368.667 287.761L230.28 353.587C230.151 353.648 230.035 353.735 229.938 353.843C229.842 353.952 229.766 354.079 229.717 354.217C229.667 354.356 229.644 354.503 229.649 354.651C229.654 354.798 229.687 354.944 229.746 355.078C229.805 355.213 229.889 355.334 229.993 355.434C230.096 355.535 230.218 355.614 230.351 355.665C230.484 355.717 230.625 355.741 230.767 355.736C230.909 355.73 231.048 355.696 231.178 355.635Z" fill="white"/>
<path d="M208.068 261.309L316.166 209.892C316.774 209.619 317.265 209.122 317.545 208.497C317.825 207.871 317.875 207.161 317.685 206.5C317.569 206.14 317.381 205.81 317.135 205.531C316.889 205.252 316.589 205.03 316.255 204.879C315.921 204.729 315.56 204.653 315.196 204.656C314.832 204.66 314.473 204.743 314.142 204.901L206.078 256.303C205.458 256.577 204.958 257.081 204.674 257.716C204.39 258.352 204.341 259.075 204.538 259.746C204.657 260.1 204.847 260.425 205.094 260.699C205.341 260.973 205.64 261.191 205.972 261.338C206.304 261.485 206.662 261.559 207.023 261.554C207.384 261.549 207.74 261.466 208.068 261.309Z" fill="white"/>
<path d="M91.2738 503.406C92.428 484.778 102.389 465.879 118.972 458.815C113.381 478.26 114.571 499.14 122.333 517.759C125.351 524.928 129.424 532.575 127.398 540.114C126.138 544.804 122.615 548.552 118.578 551.008C114.54 553.464 109.98 554.798 105.477 556.107L104.623 556.936C96.4115 540.346 90.1197 522.034 91.2738 503.406Z" fill="#F0F0F0"/>
<path d="M119.16 459.154C109.959 471.271 104.655 486.1 104.003 501.536C103.806 504.856 104.113 508.188 104.912 511.409C105.787 514.52 107.446 517.331 109.717 519.548C111.794 521.66 114.153 523.569 115.701 526.17C116.475 527.514 116.967 529.013 117.146 530.569C117.324 532.124 117.185 533.702 116.738 535.198C115.715 538.955 113.458 542.106 111.148 545.107C108.584 548.439 105.869 551.858 104.941 556.123C104.829 556.64 104.066 556.428 104.178 555.912C105.793 548.492 112.353 543.928 115.22 537.158C116.557 533.998 116.989 530.4 115.387 527.251C113.987 524.498 111.555 522.527 109.434 520.408C107.189 518.279 105.478 515.609 104.451 512.632C103.498 509.464 103.069 506.15 103.182 502.832C103.323 495.357 104.592 487.952 106.941 480.888C109.578 472.81 113.523 465.262 118.604 458.571C118.918 458.157 119.473 458.743 119.16 459.154Z" fill="white"/>
<path d="M103.933 496.553C101.462 496.087 99.2304 494.722 97.6368 492.7C96.0431 490.679 95.191 488.133 95.2327 485.517C95.2353 485.41 95.2775 485.309 95.3505 485.234C95.4235 485.159 95.5216 485.117 95.624 485.116C95.7264 485.115 95.8252 485.155 95.8995 485.229C95.9738 485.302 96.0179 485.403 96.0224 485.509C95.9793 487.945 96.7733 490.316 98.261 492.196C99.7487 494.075 101.832 495.338 104.135 495.757C104.636 495.849 104.43 496.644 103.933 496.553Z" fill="white"/>
<path d="M108.528 518.622C112.771 515.613 115.77 511.049 116.927 505.839C117.041 505.322 117.804 505.534 117.69 506.05C116.477 511.469 113.347 516.213 108.924 519.334C108.503 519.631 108.109 518.918 108.528 518.622Z" fill="white"/>
<path d="M110.354 473.543C111.274 473.931 112.272 474.074 113.258 473.961C114.244 473.848 115.188 473.481 116.005 472.893C116.423 472.59 116.816 473.304 116.401 473.605C115.496 474.249 114.453 474.653 113.364 474.781C112.274 474.909 111.171 474.757 110.151 474.338C110.052 474.307 109.968 474.238 109.915 474.145C109.863 474.051 109.847 473.94 109.871 473.835C109.898 473.73 109.964 473.64 110.055 473.586C110.145 473.531 110.253 473.516 110.354 473.543Z" fill="white"/>
<path d="M172.444 488.654C172.188 488.851 171.933 489.047 171.677 489.251C168.251 491.913 165.039 494.862 162.072 498.066C161.839 498.31 161.606 498.561 161.38 498.811C154.31 506.612 148.692 515.711 144.81 525.648C143.269 529.604 142.019 533.676 141.071 537.829C139.762 543.565 138.781 549.893 135.817 554.702C135.513 555.207 135.179 555.692 134.818 556.155L105.66 557.957C105.592 557.927 105.524 557.903 105.455 557.872L104.294 558C104.329 557.782 104.369 557.557 104.404 557.339C104.423 557.213 104.449 557.086 104.469 556.96C104.484 556.875 104.499 556.791 104.508 556.714C104.513 556.686 104.519 556.658 104.524 556.636C104.533 556.559 104.549 556.489 104.558 556.419C104.78 555.16 105.011 553.9 105.251 552.64C105.251 552.634 105.251 552.634 105.257 552.626C107.107 543.031 109.743 533.513 113.681 524.714C113.8 524.449 113.918 524.178 114.049 523.912C115.846 519.956 117.949 516.16 120.339 512.561C121.654 510.595 123.063 508.699 124.562 506.882C128.443 502.193 133.008 498.169 138.089 494.958C148.219 488.558 160.201 485.606 171.577 488.429C171.868 488.502 172.153 488.575 172.444 488.654Z" fill="#F0F0F0"/>
<path d="M172.401 489.044C158.052 492.946 145.249 501.459 135.809 513.375C133.733 515.902 132.053 518.755 130.829 521.828C129.73 524.861 129.431 528.146 129.963 531.341C130.401 534.33 131.181 537.334 130.915 540.383C130.756 541.941 130.283 543.446 129.526 544.8C128.77 546.155 127.747 547.327 126.525 548.241C123.538 550.599 119.915 551.699 116.337 552.646C112.364 553.698 108.221 554.725 105.015 557.548C104.627 557.89 104.14 557.242 104.528 556.9C110.105 551.989 117.98 552.46 124.181 548.853C127.075 547.17 129.499 544.568 130.039 541.049C130.511 537.972 129.709 534.872 129.24 531.85C128.678 528.741 128.855 525.537 129.755 522.516C130.824 519.388 132.397 516.472 134.405 513.894C138.836 508.015 144.128 502.898 150.085 498.731C156.859 493.936 164.37 490.384 172.293 488.229C172.784 488.095 172.888 488.911 172.401 489.044Z" fill="white"/>
<path d="M138.632 509.352C136.928 507.43 135.936 504.94 135.831 502.326C135.727 499.712 136.518 497.145 138.063 495.083C138.377 494.667 139.012 495.155 138.698 495.572C137.256 497.49 136.519 499.881 136.621 502.315C136.723 504.749 137.657 507.064 139.253 508.844C139.6 509.231 138.977 509.737 138.632 509.352Z" fill="white"/>
<path d="M129.549 529.856C134.675 530.115 139.707 528.352 143.642 524.917C144.031 524.577 144.518 525.225 144.129 525.565C140.029 529.131 134.788 530.955 129.454 530.672C128.946 530.645 129.043 529.828 129.549 529.856Z" fill="white"/>
<path d="M157.055 495.008C157.565 495.894 158.279 496.635 159.132 497.163C159.986 497.691 160.951 497.99 161.943 498.034C162.451 498.054 162.353 498.871 161.848 498.85C160.753 498.797 159.687 498.466 158.743 497.884C157.799 497.303 157.006 496.49 156.434 495.515C156.372 495.428 156.345 495.32 156.357 495.213C156.37 495.106 156.421 495.007 156.501 494.938C156.583 494.871 156.688 494.841 156.792 494.854C156.895 494.867 156.99 494.922 157.055 495.008Z" fill="white"/>
<path d="M526.978 466.374H253.634V145.137H526.978V466.374Z" fill="white"/>
<path d="M526.978 466.374H253.634V145.137H526.978V466.374ZM255.103 464.843H525.508V146.668H255.103L255.103 464.843Z" fill="#CACACA"/>
<path d="M493.77 295.548H286.841C286.648 295.548 286.457 295.508 286.279 295.431C286.1 295.354 285.938 295.242 285.802 295.099C285.666 294.957 285.557 294.788 285.483 294.603C285.41 294.417 285.372 294.218 285.372 294.017C285.372 293.815 285.41 293.616 285.483 293.431C285.557 293.245 285.666 293.076 285.802 292.934C285.938 292.792 286.1 292.679 286.279 292.602C286.457 292.525 286.648 292.485 286.841 292.485H493.77C494.16 292.485 494.534 292.647 494.81 292.934C495.085 293.221 495.24 293.61 495.24 294.017C495.24 294.423 495.085 294.812 494.81 295.099C494.534 295.386 494.16 295.548 493.77 295.548Z" fill="#E4E4E4"/>
<path d="M493.77 269.286H286.841C286.451 269.286 286.078 269.124 285.802 268.837C285.526 268.55 285.372 268.16 285.372 267.754C285.372 267.348 285.526 266.959 285.802 266.672C286.078 266.384 286.451 266.223 286.841 266.223H493.77C494.16 266.223 494.534 266.384 494.81 266.672C495.085 266.959 495.24 267.348 495.24 267.754C495.24 268.16 495.085 268.55 494.81 268.837C494.534 269.124 494.16 269.286 493.77 269.286Z" fill="#E4E4E4"/>
<path d="M493.77 243.023H286.841C286.648 243.023 286.457 242.984 286.279 242.907C286.1 242.83 285.938 242.717 285.802 242.575C285.666 242.433 285.557 242.264 285.483 242.078C285.41 241.892 285.372 241.693 285.372 241.492C285.372 241.291 285.41 241.092 285.483 240.906C285.557 240.72 285.666 240.552 285.802 240.409C285.938 240.267 286.1 240.154 286.279 240.077C286.457 240.001 286.648 239.961 286.841 239.961H493.77C494.16 239.961 494.534 240.122 494.81 240.409C495.085 240.697 495.24 241.086 495.24 241.492C495.24 241.898 495.085 242.288 494.81 242.575C494.534 242.862 494.16 243.023 493.77 243.023Z" fill="#E4E4E4"/>
<path d="M493.77 216.761H286.841C286.451 216.761 286.078 216.6 285.802 216.313C285.526 216.026 285.372 215.636 285.372 215.23C285.372 214.824 285.526 214.434 285.802 214.147C286.078 213.86 286.451 213.699 286.841 213.699H493.77C494.16 213.699 494.534 213.86 494.81 214.147C495.085 214.434 495.24 214.824 495.24 215.23C495.24 215.636 495.085 216.026 494.81 216.313C494.534 216.6 494.16 216.761 493.77 216.761Z" fill="#E4E4E4"/>
<path d="M493.77 319.282H286.841C286.451 319.282 286.078 319.12 285.802 318.833C285.526 318.546 285.372 318.157 285.372 317.75C285.372 317.344 285.526 316.955 285.802 316.668C286.078 316.381 286.451 316.219 286.841 316.219H493.77C494.16 316.219 494.534 316.381 494.81 316.668C495.085 316.955 495.24 317.344 495.24 317.75C495.24 318.157 495.085 318.546 494.81 318.833C494.534 319.12 494.16 319.282 493.77 319.282Z" fill="#E4E4E4"/>
<path d="M493.77 437.106H286.841C286.451 437.106 286.078 436.945 285.802 436.658C285.526 436.371 285.372 435.981 285.372 435.575C285.372 435.169 285.526 434.78 285.802 434.492C286.078 434.205 286.451 434.044 286.841 434.044H493.77C494.16 434.044 494.534 434.205 494.81 434.492C495.085 434.78 495.24 435.169 495.24 435.575C495.24 435.981 495.085 436.371 494.81 436.658C494.534 436.945 494.16 437.106 493.77 437.106Z" fill="#E4E4E4"/>
<path d="M444.201 412.527H336.411C335.69 412.526 335 412.227 334.49 411.696C333.981 411.166 333.694 410.446 333.693 409.695V343.63C333.694 342.879 333.981 342.16 334.49 341.629C335 341.098 335.69 340.8 336.411 340.799H444.201C444.922 340.8 445.612 341.098 446.122 341.629C446.631 342.16 446.918 342.879 446.919 343.63V409.695C446.918 410.446 446.631 411.165 446.122 411.696C445.612 412.227 444.922 412.526 444.201 412.527Z" fill="white"/>
<path d="M408.204 374.785C407.656 374.173 406.995 373.682 406.26 373.341C405.526 373.001 404.733 372.818 403.93 372.803C403.126 372.788 402.328 372.941 401.582 373.254C400.837 373.567 400.159 374.033 399.59 374.624L369.255 406.232C368.453 407.065 367.368 407.533 366.236 407.535C365.104 407.537 364.017 407.072 363.213 406.241L358.721 401.569C358.165 400.99 357.506 400.531 356.78 400.218C356.054 399.904 355.276 399.743 354.49 399.743C353.705 399.743 352.927 399.904 352.201 400.218C351.475 400.531 350.815 400.99 350.26 401.569L341.565 410.639H439.047V409.346L408.204 374.785Z" fill="#31572C"/>
<path d="M444.201 412.527H336.411C335.69 412.526 335 412.227 334.49 411.696C333.981 411.166 333.694 410.446 333.693 409.695V343.63C333.694 342.879 333.981 342.16 334.49 341.629C335 341.098 335.69 340.8 336.411 340.799H444.201C444.922 340.8 445.612 341.098 446.122 341.629C446.631 342.16 446.918 342.879 446.919 343.63V409.695C446.918 410.446 446.631 411.165 446.122 411.696C445.612 412.227 444.922 412.526 444.201 412.527ZM336.411 342.686C336.171 342.687 335.94 342.786 335.771 342.963C335.601 343.14 335.505 343.38 335.505 343.63V409.695C335.505 409.945 335.601 410.185 335.771 410.362C335.94 410.539 336.171 410.639 336.411 410.639H444.201C444.441 410.639 444.672 410.539 444.841 410.362C445.011 410.185 445.107 409.945 445.107 409.695V343.63C445.107 343.38 445.011 343.14 444.841 342.963C444.672 342.786 444.441 342.687 444.201 342.686L336.411 342.686Z" fill="#3F3D56"/>
<path d="M184.337 401.484C184.611 400.48 184.669 399.426 184.509 398.396C184.349 397.366 183.975 396.385 183.411 395.522C182.848 394.659 182.11 393.936 181.25 393.402C180.389 392.869 179.427 392.538 178.43 392.434L172.782 367.762L164.125 377.373L170.816 399.329C170.759 401.085 171.323 402.801 172.399 404.153C173.476 405.505 174.991 406.398 176.658 406.664C178.325 406.93 180.027 406.549 181.442 405.594C182.858 404.64 183.888 403.177 184.337 401.484Z" fill="#FFB6B6"/>
<path d="M169.24 392.535C168.832 392.393 168.456 392.164 168.139 391.861C167.821 391.558 167.568 391.189 167.396 390.777L155.421 360.258C152.367 352.941 151.968 344.718 154.298 337.117L161.971 312.074C162.088 310.727 162.458 309.418 163.061 308.22C163.664 307.022 164.487 305.96 165.484 305.095C166.481 304.229 167.632 303.576 168.872 303.174C170.111 302.772 171.414 302.629 172.706 302.752C173.999 302.876 175.255 303.263 176.404 303.893C177.553 304.522 178.571 305.381 179.401 306.421C180.23 307.461 180.855 308.661 181.239 309.953C181.623 311.245 181.76 312.603 181.64 313.949L171.463 354.276L178.279 385.948C178.386 386.595 178.299 387.261 178.031 387.855C177.763 388.449 177.326 388.943 176.78 389.27L171.728 392.277C171.186 392.6 170.563 392.742 169.941 392.686C169.703 392.665 169.467 392.614 169.24 392.535Z" fill="#E4E4E4"/>
<path d="M211.832 548.906H220.183L224.157 515.342H211.83L211.832 548.906Z" fill="#FFB6B6"/>
<path d="M209.702 546.066L226.149 546.065H226.15C228.93 546.065 231.596 547.216 233.561 549.264C235.527 551.312 236.631 554.09 236.631 556.986V557.341L209.702 557.342L209.702 546.066Z" fill="#2F2E41"/>
<path d="M164.828 548.906H173.179L177.153 515.342H164.826L164.828 548.906Z" fill="#FFB6B6"/>
<path d="M162.697 546.066L179.145 546.065H179.145C181.925 546.065 184.591 547.216 186.557 549.264C188.522 551.312 189.627 554.09 189.627 556.986V557.341L162.698 557.342L162.697 546.066Z" fill="#2F2E41"/>
<path d="M216.861 379.61L167.883 375.12C167.883 375.12 163.045 407.292 163.726 420.068C164.407 432.844 165.088 452.718 165.088 452.718L159.638 539.312L180.756 536.473L183.481 464.785L192.337 425.746L202.555 475.432L209.368 539.312L227.761 537.183L221.63 459.816C221.63 459.816 227.079 390.257 216.861 379.61Z" fill="#2F2E41"/>
<path d="M197.106 285.208C204.63 285.208 210.73 278.852 210.73 271.012C210.73 263.172 204.63 256.816 197.106 256.816C189.581 256.816 183.481 263.172 183.481 271.012C183.481 278.852 189.581 285.208 197.106 285.208Z" fill="#FFB8B8"/>
<path d="M212.025 302.71L202.295 294.639C202.295 294.639 191.757 286.167 185.575 292.43L182.8 296.565C182.8 296.565 167.065 302.71 167.065 310.517L167.813 353.348C167.813 353.348 162.363 375.351 170.538 376.771L218.156 380.786L217.542 339.862L212.025 302.71Z" fill="#E4E4E4"/>
<path d="M186.547 283.434C186.547 283.434 172.241 272.787 179.734 260.011C184.933 251.147 195.705 251.849 201.816 253.11C203.462 253.427 205.009 254.156 206.325 255.234C207.641 256.313 208.685 257.708 209.368 259.301C210.389 261.785 210.389 264.269 206.302 264.269C198.127 264.269 202.215 270.658 202.215 270.658C202.215 270.658 196.765 272.077 198.127 277.046C199.49 282.014 186.547 283.434 186.547 283.434Z" fill="#2F2E41"/>
<path d="M261.18 377.512C260.926 376.503 260.463 375.564 259.823 374.761C259.184 373.958 258.383 373.311 257.477 372.866C256.571 372.421 255.583 372.188 254.581 372.183C253.58 372.179 252.59 372.404 251.681 372.841L234.792 354.574L232.018 367.434L248.481 382.809C249.288 384.352 250.61 385.532 252.196 386.127C253.783 386.722 255.523 386.69 257.089 386.038C258.654 385.385 259.935 384.156 260.689 382.585C261.443 381.014 261.618 379.209 261.18 377.512Z" fill="#FFB6B6"/>
<path d="M243.813 377.79C243.392 377.884 242.957 377.885 242.535 377.792C242.114 377.699 241.716 377.515 241.368 377.252L216.178 357.295C209.982 352.607 205.631 345.734 203.934 337.953L198.34 312.319C197.783 311.097 197.463 309.772 197.398 308.421C197.333 307.07 197.525 305.718 197.962 304.444C198.398 303.17 199.072 301.999 199.944 300.996C200.816 299.994 201.869 299.18 203.043 298.603C204.217 298.025 205.489 297.694 206.786 297.629C208.083 297.564 209.379 297.765 210.601 298.223C211.823 298.681 212.946 299.385 213.907 300.295C214.867 301.205 215.646 302.304 216.198 303.529L227.084 343.654L248.39 367.334C248.797 367.834 249.047 368.454 249.106 369.107C249.164 369.761 249.029 370.417 248.717 370.988L245.831 376.252C245.521 376.816 245.053 377.269 244.49 377.549C244.275 377.657 244.047 377.738 243.813 377.79Z" fill="#E4E4E4"/>
<path d="M589.813 95.4192H196.369C196.218 95.4187 196.074 95.3557 195.967 95.2442C195.86 95.1327 195.8 94.9817 195.8 94.8242C195.8 94.6668 195.86 94.5158 195.967 94.4042C196.074 94.2927 196.218 94.2298 196.369 94.2292H589.813C589.964 94.2298 590.109 94.2927 590.215 94.4042C590.322 94.5158 590.382 94.6668 590.382 94.8242C590.382 94.9817 590.322 95.1327 590.215 95.2442C590.109 95.3557 589.964 95.4187 589.813 95.4192Z" fill="#CACACA"/>
<path d="M209.222 87.0896C212.691 87.0896 215.503 84.1594 215.503 80.5448C215.503 76.9302 212.691 74 209.222 74C205.753 74 202.941 76.9302 202.941 80.5448C202.941 84.1594 205.753 87.0896 209.222 87.0896Z" fill="#3F3D56"/>
<path d="M230.922 87.0896C234.391 87.0896 237.203 84.1594 237.203 80.5448C237.203 76.9302 234.391 74 230.922 74C227.452 74 224.64 76.9302 224.64 80.5448C224.64 84.1594 227.452 87.0896 230.922 87.0896Z" fill="#3F3D56"/>
<path d="M252.621 87.0896C256.09 87.0896 258.902 84.1594 258.902 80.5448C258.902 76.9302 256.09 74 252.621 74C249.152 74 246.339 76.9302 246.339 80.5448C246.339 84.1594 249.152 87.0896 252.621 87.0896Z" fill="#3F3D56"/>
<path d="M576.812 78.0032H561.394C561.092 78.0021 560.802 77.8763 560.589 77.6532C560.375 77.4302 560.256 77.1281 560.256 76.8132C560.256 76.4984 560.375 76.1963 560.589 75.9733C560.802 75.7502 561.092 75.6244 561.394 75.6233H576.812C577.114 75.6244 577.403 75.7502 577.617 75.9733C577.83 76.1963 577.95 76.4984 577.95 76.8132C577.95 77.1281 577.83 77.4302 577.617 77.6532C577.403 77.8763 577.114 78.0021 576.812 78.0032Z" fill="#3F3D56"/>
<path d="M576.812 82.4656H561.394C561.092 82.4645 560.802 82.3387 560.589 82.1156C560.375 81.8926 560.256 81.5905 560.256 81.2757C560.256 80.9608 560.375 80.6587 560.589 80.4357C560.802 80.2126 561.092 80.0868 561.394 80.0857H576.812C577.114 80.0868 577.403 80.2126 577.617 80.4357C577.83 80.6587 577.95 80.9608 577.95 81.2757C577.95 81.5905 577.83 81.8926 577.617 82.1156C577.403 82.3387 577.114 82.4645 576.812 82.4656Z" fill="#3F3D56"/>
<path d="M576.812 86.928H561.394C561.092 86.9269 560.802 86.8011 560.589 86.578C560.375 86.355 560.256 86.0529 560.256 85.7381C560.256 85.4232 560.375 85.1211 560.589 84.8981C560.802 84.675 561.092 84.5492 561.394 84.5481H576.812C577.114 84.5492 577.403 84.675 577.617 84.8981C577.83 85.1211 577.95 85.4232 577.95 85.7381C577.95 86.0529 577.83 86.355 577.617 86.578C577.403 86.8011 577.114 86.9269 576.812 86.928Z" fill="#3F3D56"/>
<path d="M333.227 557.524H73.6812C73.5006 557.524 73.3273 557.449 73.1995 557.316C73.0718 557.183 73 557.002 73 556.814C73 556.626 73.0718 556.445 73.1995 556.312C73.3273 556.179 73.5006 556.104 73.6812 556.104H333.227C333.407 556.104 333.581 556.179 333.708 556.312C333.836 556.445 333.908 556.626 333.908 556.814C333.908 557.002 333.836 557.183 333.708 557.316C333.581 557.449 333.407 557.524 333.227 557.524Z" fill="#CACACA"/>
<path d="M471.226 188.961H309.588C308.687 188.981 307.811 188.656 307.125 188.047C306.439 187.438 305.992 186.587 305.869 185.658C305.818 185.145 305.871 184.626 306.025 184.136C306.178 183.645 306.429 183.194 306.76 182.811C307.092 182.428 307.497 182.122 307.949 181.912C308.401 181.703 308.891 181.594 309.386 181.594H470.975C471.89 181.569 472.782 181.898 473.478 182.517C474.175 183.136 474.627 184.002 474.747 184.947C474.791 185.457 474.733 185.97 474.576 186.455C474.419 186.94 474.166 187.385 473.835 187.762C473.504 188.14 473.101 188.442 472.651 188.648C472.202 188.854 471.717 188.961 471.226 188.961Z" fill="#31572C"/>
</g>
<defs>
<clipPath id="clip0_229_58">
<rect width="551" height="484" fill="white" transform="translate(73 74)"/>
</clipPath>
</defs>
</svg>
