<svg width="138" height="128" viewBox="0 0 138 128" fill="none" xmlns="http://www.w3.org/2000/svg">
<g clip-path="url(#clip0_110_68)">
<path d="M131.853 118.632H30.0835L45.1667 112.75C45.7753 112.524 46.4195 112.118 46.8516 111.716L136.521 28.5448C138.493 26.7163 138.493 23.7513 136.521 21.9223L114.367 1.37321C112.395 -0.455295 109.198 -0.455295 107.227 1.37321C105.594 2.88721 20.203 82.0911 17.5573 84.5449C17.1001 84.9681 16.6721 85.5749 16.4435 86.1066L0.411527 121.471C-1.01187 124.546 1.43224 127.998 5.05233 127.998H131.853C134.642 127.998 136.902 125.901 136.902 123.315C136.902 120.729 134.641 118.632 131.853 118.632ZM110.797 11.3065L125.811 25.2333L114.818 35.43L99.8033 21.5033L110.797 11.3065ZM92.6636 28.1258L107.678 42.0525L43.2819 101.783L28.2671 87.8559L92.6636 28.1258ZM22.8692 96.0942L34.3998 106.789L14.5029 114.549L22.8692 96.0942Z" fill="#65C858"/>
</g>
<defs>
<clipPath id="clip0_110_68">
<rect width="138" height="128" fill="white"/>
</clipPath>
</defs>
</svg>
