<svg width="186" height="176" viewBox="0 0 186 176" fill="none" xmlns="http://www.w3.org/2000/svg">
<path d="M131.75 124.667H131.828M134.85 102.667H139.5C146.722 102.667 150.333 102.667 153.182 103.783C156.979 105.272 159.997 108.127 161.57 111.72C162.75 114.416 162.75 117.833 162.75 124.667C162.75 131.501 162.75 134.917 161.57 137.613C159.997 141.206 156.979 144.062 153.182 145.551C150.333 146.667 146.722 146.667 139.5 146.667H46.5C39.2779 146.667 35.6669 146.667 32.8184 145.551C29.0205 144.062 26.003 141.206 24.4299 137.613C23.25 134.917 23.25 131.501 23.25 124.667C23.25 117.833 23.25 114.416 24.4299 111.72C26.003 108.127 29.0205 105.272 32.8184 103.783C35.6669 102.667 39.2779 102.667 46.5 102.667H51.15M93 110V29.3334M93 110L69.75 88M93 110L116.25 88" stroke="#65C858" stroke-width="10" stroke-linecap="round" stroke-linejoin="round"/>
</svg>
