<?xml version="1.0" encoding="UTF-8" standalone="no" ?>
<!DOCTYPE svg PUBLIC "-//W3C//DTD SVG 1.1//EN" "http://www.w3.org/Graphics/SVG/1.1/DTD/svg11.dtd">
<svg xmlns="http://www.w3.org/2000/svg" xmlns:xlink="http://www.w3.org/1999/xlink" version="1.1" width="1080" height="1080" viewBox="0 0 1080 1080" xml:space="preserve">
<desc>Created with Fabric.js 5.2.4</desc>
<defs>
</defs>
<g transform="matrix(1 0 0 1 540 540)" id="5b86e0cf-db20-4bf6-932c-46cf40523670"  >
</g>
<g transform="matrix(1 0 0 1 540 540)" id="1c80d55f-528c-4028-9b4b-b90cb4d0b6f8"  >
<rect style="stroke: none; stroke-width: 1; stroke-dasharray: none; stroke-linecap: butt; stroke-dashoffset: 0; stroke-linejoin: miter; stroke-miterlimit: 4; fill: rgb(255,255,255); fill-rule: nonzero; opacity: 1; visibility: hidden;" vector-effect="non-scaling-stroke"  x="-540" y="-540" rx="0" ry="0" width="1080" height="1080" />
</g>
<g transform="matrix(7.51 0 0 7.51 539.74 575.37)"  >
<g style="" vector-effect="non-scaling-stroke"   >
		<g transform="matrix(1 0 0 1 -20.53 -0.28)"  >
<path style="stroke: none; stroke-width: 1; stroke-dasharray: none; stroke-linecap: butt; stroke-dashoffset: 0; stroke-linejoin: miter; stroke-miterlimit: 4; fill: rgb(101,200,88); fill-rule: nonzero; opacity: 1;" vector-effect="non-scaling-stroke"  transform=" translate(-89.6, -90.22)" d="M 70.6064 108.928 C 69.36 110.556 68.6966 112.469 68.7 114.425 L 68.7 118.42 L 54.2558 118.425 C 53.7769 118.425 53.3047 118.522 52.8765 118.709 C 52.4483 118.895 52.0759 119.166 51.7887 119.499 C 51.5016 119.832 51.3076 120.218 51.222 120.628 C 51.1365 121.037 51.1618 121.458 51.296 121.858 L 59.5858 143.001 L 59.6316 143.116 C 60.0324 144.24 61.2232 145.001 62.5743 145.001 L 68.7 145.001 L 68.7 154.494 L 62.5743 154.499 C 59.5982 154.507 56.6969 153.688 54.2941 152.162 C 51.8912 150.636 50.1126 148.483 49.2178 146.016 L 40.9166 124.858 L 40.8937 124.798 L 40.8708 124.738 C 40.2138 122.914 40.0602 120.982 40.4224 119.096 C 40.7846 117.211 41.6525 115.427 42.9558 113.887 C 44.2591 112.348 45.9612 111.097 47.9244 110.235 C 49.8875 109.373 52.0565 108.926 54.2558 108.928 L 70.6064 108.928 Z M 111.638 25.9447 C 118.883 25.9526 125.83 28.4574 130.954 32.9098 C 136.077 37.3622 138.96 43.3987 138.969 49.6953 C 138.96 55.992 136.077 62.0284 130.954 66.4808 C 125.83 70.9332 118.883 73.4381 111.638 73.446 C 104.392 73.4381 97.4451 70.9332 92.3215 66.4808 C 87.1979 62.0284 84.3154 55.992 84.3064 49.6953 C 84.3139 43.3978 87.1957 37.3601 92.3195 32.9066 C 97.4433 28.4531 104.391 25.9476 111.638 25.9397 L 111.638 25.9447 Z M 111.638 35.4419 C 108.434 35.4419 105.301 36.2568 102.625 37.7861 C 99.9488 39.3155 97.8464 41.4923 96.5773 44.048 C 95.3082 46.6037 94.928 49.4263 95.4836 52.1676 C 96.0392 54.9088 97.5062 57.4488 99.7037 59.4739 C 101.901 61.499 104.733 62.9207 107.849 63.5634 C 110.966 64.2062 114.231 64.042 117.241 63.091 C 120.251 62.1399 122.875 60.4438 124.789 58.2118 C 126.703 55.9799 127.823 53.3098 128.011 50.5311 L 128.04 49.6953 C 128.035 46.0609 126.435 42.5649 123.566 39.9207 C 120.697 37.2765 116.774 35.6835 112.599 35.4668 L 111.638 35.4419 Z" stroke-linecap="round" />
</g>
		<g transform="matrix(1 0 0 1 1.51 6.61)"  >
<path style="stroke: none; stroke-width: 1; stroke-dasharray: none; stroke-linecap: butt; stroke-dashoffset: 0; stroke-linejoin: miter; stroke-miterlimit: 4; fill: rgb(101,200,88); fill-rule: nonzero; opacity: 1;" vector-effect="non-scaling-stroke"  transform=" translate(-111.64, -97.12)" d="M 160.838 117.206 C 159.388 117.206 157.997 116.705 156.972 115.814 C 155.947 114.923 155.371 113.715 155.371 112.455 C 155.371 105.365 152.783 98.7388 148.094 93.7986 C 143.652 89.1171 137.847 86.5401 131.721 86.5401 L 91.5542 86.5401 C 85.4399 86.5401 79.6233 89.1171 75.1807 93.7936 C 70.4862 98.7388 67.9099 105.361 67.9099 112.455 C 67.9099 113.715 67.3339 114.923 66.3086 115.814 C 65.2833 116.705 63.8926 117.206 62.4426 117.206 C 60.9925 117.206 59.6019 116.705 58.5765 115.814 C 57.5512 114.923 56.9752 113.715 56.9752 112.455 C 56.9752 103.162 60.4445 94.3906 66.7478 87.749 C 69.755 84.5296 73.4928 81.8827 77.7283 79.9731 C 81.9999 78.0465 86.7416 77.0399 91.5542 77.0378 L 131.721 77.0378 C 136.536 77.0378 141.282 78.0478 145.547 79.9731 C 149.686 81.8138 153.373 84.4307 156.527 87.754 C 162.83 94.3906 166.306 103.162 166.306 112.455 C 166.306 113.715 165.729 114.923 164.704 115.814 C 163.679 116.705 162.288 117.206 160.838 117.206 Z" stroke-linecap="round" />
</g>
		<g transform="matrix(1 0 0 1 1.52 10.66)"  >
<path style="stroke: none; stroke-width: 1; stroke-dasharray: none; stroke-linecap: butt; stroke-dashoffset: 0; stroke-linejoin: miter; stroke-miterlimit: 4; fill: rgb(101,200,88); fill-rule: nonzero; opacity: 1;" vector-effect="non-scaling-stroke"  transform=" translate(-111.66, -101.17)" d="M 111.592 92.0674 L 105.93 104.455 C 105.778 104.793 105.743 105.163 105.83 105.518 C 105.916 105.873 106.12 106.199 106.416 106.455 L 110.172 109.719 C 111.002 110.445 112.347 110.45 113.189 109.734 L 116.91 106.5 C 117.205 106.243 117.406 105.916 117.487 105.56 C 117.569 105.204 117.527 104.835 117.368 104.5 L 111.586 92.0674 L 111.592 92.0674 Z" stroke-linecap="round" />
</g>
		<g transform="matrix(1 0 0 1 1.52 1.82)"  >
<path style="stroke: none; stroke-width: 1; stroke-dasharray: none; stroke-linecap: butt; stroke-dashoffset: 0; stroke-linejoin: miter; stroke-miterlimit: 4; fill: rgb(101,200,88); fill-rule: nonzero; opacity: 1;" vector-effect="non-scaling-stroke"  transform=" translate(-111.64, -92.33)" d="M 114.947 95.52 L 108.328 95.52 C 107.91 95.5185 107.505 95.3959 107.176 95.1715 C 106.847 94.9471 106.614 94.6338 106.514 94.2812 L 105.615 91.1669 C 105.545 90.9258 105.54 90.6741 105.599 90.431 C 105.658 90.1878 105.78 89.9596 105.957 89.7638 C 106.133 89.568 106.358 89.4097 106.615 89.3011 C 106.873 89.1925 107.155 89.1364 107.441 89.1371 L 115.851 89.1371 C 116.137 89.1372 116.418 89.1938 116.675 89.3028 C 116.931 89.4117 117.156 89.57 117.332 89.7658 C 117.507 89.9615 117.629 90.1894 117.688 90.4322 C 117.747 90.675 117.741 90.9262 117.672 91.1669 L 116.779 94.2812 C 116.677 94.6363 116.441 94.9514 116.109 95.1761 C 115.777 95.4007 115.367 95.5219 114.947 95.52 Z" stroke-linecap="round" />
</g>
		<g transform="matrix(1 0 0 1 16.14 44.28)"  >
<path style="stroke: none; stroke-width: 1; stroke-dasharray: none; stroke-linecap: butt; stroke-dashoffset: 0; stroke-linejoin: miter; stroke-miterlimit: 4; fill: rgb(101,200,88); fill-rule: nonzero; opacity: 1;" vector-effect="non-scaling-stroke"  transform=" translate(-126.27, -134.79)" d="M 170.29 114.505 L 94.0732 114.505 C 88.356 114.505 82.8729 116.478 78.8298 119.99 C 74.7866 123.503 72.5144 128.267 72.5128 133.236 L 72.5128 136.335 L 72.5472 137.32 C 72.8471 142.108 75.2446 146.614 79.2476 149.914 C 83.2506 153.214 88.5555 155.058 94.0732 155.066 L 158.479 155.066 C 164.196 155.064 169.677 153.091 173.719 149.578 C 177.761 146.066 180.033 141.302 180.034 136.335 L 180.034 122.972 C 180.034 118.296 175.672 114.505 170.29 114.505 Z M 94.0732 124.455 L 168.578 124.45 L 168.578 136.335 C 168.578 141.186 164.056 145.116 158.474 145.116 L 94.0675 145.116 C 88.7203 145.116 84.3006 141.484 83.9857 136.872 L 83.9628 136.186 L 83.9628 133.236 C 83.9628 128.385 88.4856 124.455 94.0732 124.455 Z" stroke-linecap="round" />
</g>
</g>
</g>
</svg>