<?xml version="1.0" encoding="UTF-8" standalone="no" ?>
<!DOCTYPE svg PUBLIC "-//W3C//DTD SVG 1.1//EN" "http://www.w3.org/Graphics/SVG/1.1/DTD/svg11.dtd">
<svg xmlns="http://www.w3.org/2000/svg" xmlns:xlink="http://www.w3.org/1999/xlink" version="1.1" width="1080" height="1080" viewBox="0 0 1080 1080" xml:space="preserve">
<desc>Created with Fabric.js 5.2.4</desc>
<defs>
</defs>
<rect x="0" y="0" width="100%" height="100%" fill="transparent"></rect>
<g transform="matrix(1 0 0 1 540 540)" id="b8c98dcc-d23b-40be-a50b-3e0a6f6bd077"  >
<rect style="stroke: none; stroke-width: 1; stroke-dasharray: none; stroke-linecap: butt; stroke-dashoffset: 0; stroke-linejoin: miter; stroke-miterlimit: 4; fill: rgb(255,255,255); fill-rule: nonzero; opacity: 1; visibility: hidden;" vector-effect="non-scaling-stroke"  x="-540" y="-540" rx="0" ry="0" width="1080" height="1080" />
</g>
<g transform="matrix(1 0 0 1 540 540)" id="4c381b2b-2052-49ba-9993-8ead1556fc82"  >
</g>
<g transform="matrix(8.35 0 0 8.67 540 537.46)"  >
<g style="" vector-effect="non-scaling-stroke"   >
		<g transform="matrix(1 0 0 1 17.13 -0.33)" clip-path="url(#CLIPPATH_7)"  >
<clipPath id="CLIPPATH_7" >
	<rect transform="matrix(1 0 0 1 -13.6 -3.2)" id="clip0_110_58" x="-132.5" y="-64" rx="0" ry="0" width="265" height="128" />
</clipPath>
<path style="stroke: rgb(101,200,88); stroke-width: 2; stroke-dasharray: none; stroke-linecap: butt; stroke-dashoffset: 0; stroke-linejoin: miter; stroke-miterlimit: 4; fill: rgb(101,200,88); fill-rule: nonzero; opacity: 1;" vector-effect="non-scaling-stroke"  transform=" translate(-146.1, -67.2)" d="M 129.656 63.2035 C 135.35 63.2035 140.915 61.5613 145.649 58.4847 C 150.382 55.408 154.072 51.035 156.251 45.9186 C 158.429 40.8023 158.999 35.1724 157.889 29.741 C 156.778 24.3095 154.036 19.3204 150.011 15.4045 C 145.985 11.4886 140.856 8.8219 135.272 7.74152 C 129.688 6.66113 123.901 7.21562 118.641 9.33488 C 113.381 11.4541 108.885 15.043 105.722 19.6475 C 102.559 24.2521 100.871 29.6656 100.871 35.2035 C 100.871 42.6296 103.904 49.7515 109.302 55.0025 C 114.7 60.2535 122.022 63.2035 129.656 63.2035 Z M 129.656 15.2035 C 133.723 15.2035 137.698 16.3765 141.079 18.5741 C 144.461 20.7717 147.096 23.8953 148.652 27.5498 C 150.208 31.2044 150.616 35.2257 149.822 39.1053 C 149.029 42.9849 147.071 46.5486 144.195 49.3456 C 141.32 52.1427 137.656 54.0475 133.668 54.8192 C 129.679 55.5909 125.545 55.1948 121.788 53.6811 C 118.031 52.1673 114.82 49.6039 112.561 46.3149 C 110.301 43.0259 109.095 39.1591 109.095 35.2035 C 109.095 29.8992 111.262 24.8121 115.118 21.0614 C 118.973 17.3106 124.203 15.2035 129.656 15.2035 Z M 191.01 121.684 C 190.815 121.193 190.521 120.744 190.147 120.364 C 189.747 120.011 189.288 119.727 188.79 119.524 C 188.041 119.217 187.216 119.133 186.418 119.283 C 185.62 119.432 184.886 119.808 184.308 120.364 C 183.944 120.752 183.652 121.199 183.444 121.684 C 183.212 122.158 183.1 122.679 183.115 123.204 C 183.108 123.724 183.206 124.24 183.403 124.724 C 183.628 125.209 183.934 125.654 184.308 126.044 C 184.886 126.599 185.62 126.975 186.418 127.124 C 187.216 127.274 188.041 127.19 188.79 126.884 C 189.288 126.68 189.747 126.396 190.147 126.044 C 190.717 125.481 191.104 124.767 191.258 123.991 C 191.411 123.215 191.325 122.412 191.01 121.684 Z M 170.778 119.204 L 150.217 119.204 C 149.127 119.204 148.081 119.625 147.31 120.375 C 146.538 121.125 146.105 122.143 146.105 123.204 C 146.105 124.264 146.538 125.282 147.31 126.032 C 148.081 126.782 149.127 127.204 150.217 127.204 L 170.778 127.204 C 171.869 127.204 172.915 126.782 173.686 126.032 C 174.457 125.282 174.891 124.264 174.891 123.204 C 174.891 122.143 174.457 121.125 173.686 120.375 C 172.915 119.625 171.869 119.204 170.778 119.204 Z" stroke-linecap="round" />
</g>
		<g transform="matrix(1 0 0 1 -1.69 29.42)" clip-path="url(#CLIPPATH_8)"  >
<clipPath id="CLIPPATH_8" >
	<rect transform="matrix(1 0 0 1 5.22 -32.95)" id="clip0_110_58" x="-132.5" y="-64" rx="0" ry="0" width="265" height="128" />
</clipPath>
<path style="stroke: rgb(101,200,88); stroke-width: 4; stroke-dasharray: none; stroke-linecap: butt; stroke-dashoffset: 0; stroke-linejoin: miter; stroke-miterlimit: 4; fill: rgb(101,200,88); fill-rule: nonzero; opacity: 1;" vector-effect="non-scaling-stroke"  transform=" translate(-127.28, -96.95)" d="M 184.281 110.62 C 184.791 110.434 185.258 110.151 185.655 109.788 C 186.051 109.425 186.37 108.989 186.591 108.505 C 186.813 108.021 186.934 107.5 186.947 106.97 C 186.96 106.441 186.865 105.914 186.666 105.42 C 181.619 92.715 172.277 82.0584 160.178 75.2024 C 148.078 68.3465 133.94 65.6992 120.088 67.6958 C 106.237 69.6925 93.4954 76.2142 83.9596 86.1888 C 74.4238 96.1634 68.6609 108.997 67.6183 122.58 C 67.5787 123.129 67.6558 123.679 67.8447 124.197 C 68.0335 124.715 68.3302 125.19 68.716 125.592 C 69.1019 125.993 69.5687 126.313 70.0874 126.531 C 70.606 126.75 71.1654 126.862 71.7305 126.86 L 133.208 126.86 C 134.299 126.86 135.344 126.439 136.116 125.689 C 136.887 124.939 137.32 123.921 137.32 122.86 C 137.32 121.799 136.887 120.782 136.116 120.032 C 135.344 119.282 134.299 118.86 133.208 118.86 L 76.3362 118.86 C 78.1332 107.514 83.7398 97.065 92.2817 89.143 C 100.824 81.2209 111.82 76.2711 123.557 75.0655 C 135.294 73.8599 147.112 76.4663 157.166 82.4781 C 167.221 88.4899 174.947 97.5693 179.141 108.3 C 179.529 109.254 180.278 110.027 181.235 110.459 C 182.192 110.891 183.282 110.949 184.281 110.62 Z" stroke-linecap="round" />
</g>
</g>
</g>
</svg>